<svg width="192" height="45" viewBox="0 0 192 45" fill="none" xmlns="http://www.w3.org/2000/svg">
<path fill-rule="evenodd" clip-rule="evenodd" d="M182.623 40.9537C182.091 40.6457 181.409 40.8277 181.101 41.3597C180.828 41.8327 180.32 42.1257 179.775 42.1257C178.931 42.1257 178.244 41.4387 178.244 40.5957V38.2127C178.244 38.2117 178.244 38.2107 178.244 38.2097C178.244 37.3657 178.931 36.6797 179.775 36.6797C180.284 36.6797 180.759 36.9317 181.045 37.3547C181.26 37.6737 181.611 37.8457 181.969 37.8457C182.183 37.8457 182.4 37.7837 182.591 37.6547C183.101 37.3097 183.235 36.6177 182.891 36.1077C182.19 35.0707 181.025 34.4517 179.775 34.4517C177.824 34.4517 176.217 35.9467 176.035 37.8507C176.025 37.9107 176.016 37.9707 176.016 38.0337V40.9297C176.016 41.0617 176.043 41.1857 176.086 41.3037C176.418 43.0377 177.945 44.3537 179.775 44.3537C181.112 44.3537 182.359 43.6337 183.029 42.4757C183.337 41.9427 183.156 41.2617 182.623 40.9537" fill="#313048"/>
<path fill-rule="evenodd" clip-rule="evenodd" d="M188.195 42.1179C188.177 42.1179 188.161 42.1219 188.143 42.1229C187.323 42.0959 186.664 41.4219 186.664 40.5949V38.2099C186.664 37.3659 187.351 36.6789 188.195 36.6789C188.704 36.6789 189.179 36.9319 189.465 37.3549C189.636 37.6079 189.726 37.9029 189.726 38.2099V40.5869C189.726 40.8939 189.636 41.1899 189.465 41.4419C189.179 41.8649 188.704 42.1179 188.195 42.1179M191.943 37.9319C191.943 37.9259 191.942 37.9199 191.941 37.9139C191.937 37.8769 191.936 37.8389 191.929 37.8029C191.864 37.1969 191.655 36.6169 191.311 36.1079C190.61 35.0709 189.445 34.4519 188.195 34.4519C186.243 34.4519 184.634 35.9489 184.455 37.8549C184.445 37.9129 184.437 37.9719 184.437 38.0329V40.9289C184.437 41.0609 184.464 41.1859 184.506 41.3039C184.838 43.0379 186.365 44.3529 188.195 44.3529C188.233 44.3529 188.27 44.3459 188.307 44.3419C189.515 44.3059 190.631 43.6949 191.311 42.6899C191.593 42.2719 191.784 41.8059 191.88 41.3169C191.925 41.1959 191.953 41.0659 191.953 40.9289V38.0329C191.953 37.9989 191.946 37.9659 191.943 37.9319" fill="#313048"/>
<path fill-rule="evenodd" clip-rule="evenodd" d="M87.985 37.6821L87.969 37.6681C87.92 37.7271 87.874 37.7881 87.823 37.8441L87.985 37.6821Z" fill="#313048"/>
<path fill-rule="evenodd" clip-rule="evenodd" d="M129.481 39.4038C126.855 39.4038 124.726 37.2748 124.726 34.6488V13.4558C124.726 9.85278 121.795 6.92078 118.192 6.92078C115.227 6.92078 112.722 8.90678 111.925 11.6168C112.509 11.4458 113.125 11.3488 113.763 11.3488C117.367 11.3488 120.298 14.2808 120.298 17.8838V39.0768C120.298 41.7028 122.427 43.8318 125.053 43.8318C126.281 43.8318 127.397 43.3618 128.241 42.5978L128.284 42.6378L133.224 37.6818L133.159 37.6288C132.287 38.7028 130.973 39.4038 129.481 39.4038" fill="#313048"/>
<path fill-rule="evenodd" clip-rule="evenodd" d="M102.147 25.1388V13.4558C102.147 9.85278 99.2164 6.92078 95.6124 6.92078C92.6484 6.92078 90.1434 8.90678 89.3464 11.6168C89.9304 11.4458 90.5464 11.3498 91.1844 11.3498C94.7884 11.3498 97.7194 14.2808 97.7194 17.8838V29.5668C97.7194 32.1928 99.8474 34.3218 102.474 34.3218C103.461 34.3218 104.377 34.0208 105.138 33.5058L105.17 33.5368L105.385 33.3208C105.704 33.0738 105.989 32.7868 106.235 32.4678L109.845 28.8468C109.033 29.4928 108.02 29.8938 106.902 29.8938C104.275 29.8938 102.147 27.7648 102.147 25.1388" fill="#313048"/>
<path fill-rule="evenodd" clip-rule="evenodd" d="M79.5684 34.6488V12.7758C79.5684 12.5398 79.6044 12.3148 79.6374 12.0878C79.8734 9.31078 80.8324 6.74178 82.3044 4.54578C78.3564 7.18778 75.6334 11.5248 75.2094 16.5158C75.1764 16.7428 75.1404 16.9688 75.1404 17.2038V39.0768C75.1404 41.7028 77.2684 43.8318 79.8954 43.8318C81.1034 43.8318 82.2034 43.3778 83.0424 42.6348L83.0454 42.6378L83.1014 42.5808C83.2084 42.4828 83.3114 42.3798 83.4094 42.2728L87.5244 38.1438C86.6784 38.9188 85.5614 39.4038 84.3234 39.4038C81.6974 39.4038 79.5684 37.2748 79.5684 34.6488" fill="#313048"/>
<path fill-rule="evenodd" clip-rule="evenodd" d="M71.1357 33.5815C71.1437 33.5725 71.1477 33.5645 71.1557 33.5555C71.1227 33.5975 71.0867 33.6365 71.0537 33.6775C71.0807 33.6455 71.1087 33.6135 71.1357 33.5815" fill="#313048"/>
<path fill-rule="evenodd" clip-rule="evenodd" d="M58.4874 39.7567C50.6754 39.7567 44.1574 34.1417 42.7384 26.7367C42.5584 26.2357 42.4434 25.7027 42.4434 25.1387V12.7757C42.4434 12.5087 42.4794 12.2507 42.5214 11.9947C42.8354 8.70669 44.1574 5.71469 46.1574 3.30469L43.8194 5.61969C43.1104 6.20869 42.4544 6.86069 41.8564 7.56169L41.8474 7.57069V7.57169C39.7754 10.0067 38.4144 13.0647 38.0934 16.4227C38.0514 16.6787 38.0144 16.9367 38.0144 17.2037V29.5667C38.0144 30.1307 38.1304 30.6637 38.3104 31.1647C39.7294 38.5697 46.2474 44.1847 54.0594 44.1847C57.4544 44.1847 60.7084 43.0917 63.3944 41.1707L63.3974 41.1787C63.3974 41.1787 63.4294 41.1527 63.4844 41.1067C64.2734 40.5347 65.0104 39.8907 65.6874 39.1797C67.0304 37.9577 68.7584 36.2987 70.2964 34.5597C67.2894 37.8217 63.0114 39.7567 58.4874 39.7567" fill="#313048"/>
<path fill-rule="evenodd" clip-rule="evenodd" d="M71.3627 33.2748C71.3457 33.2968 71.3307 33.3208 71.3137 33.3428C71.3297 33.3208 71.3487 33.2968 71.3627 33.2748" fill="#313048"/>
<path fill-rule="evenodd" clip-rule="evenodd" d="M72.0072 9.52594L71.9892 9.51794C71.9792 9.53594 71.9712 9.55494 71.9612 9.57294L72.0072 9.52594Z" fill="#313048"/>
<path fill-rule="evenodd" clip-rule="evenodd" d="M63.9104 9.88C62.6894 8.074 60.6624 6.995 58.4884 6.995C55.5244 6.995 53.0184 8.981 52.2224 11.691C52.8054 11.52 53.4214 11.424 54.0604 11.424C56.2344 11.424 58.2604 12.502 59.4824 14.308C60.4004 15.668 61.8994 16.401 63.4264 16.401C64.3424 16.401 65.2684 16.137 66.0844 15.586C66.6364 15.213 67.0834 14.745 67.4214 14.218L70.2854 11.288C69.5254 11.742 68.6884 11.973 67.8544 11.973C66.3274 11.973 64.8284 11.24 63.9104 9.88" fill="#313048"/>
<path fill-rule="evenodd" clip-rule="evenodd" d="M20.5199 6.92114C17.5549 6.92114 15.0499 8.90714 14.2529 11.6171C14.8369 11.4451 15.4529 11.3491 16.0919 11.3491C19.6949 11.3491 22.6259 14.2811 22.6259 17.8841V21.2601H27.0539V13.4561C27.0539 9.85314 24.1229 6.92114 20.5199 6.92114" fill="#313048"/>
<mask id="mask0" mask-type="alpha" maskUnits="userSpaceOnUse" x="10" y="1" width="2" height="1">
<path fill-rule="evenodd" clip-rule="evenodd" d="M11.3477 1L10.3477 1L10.3477 1.9996H11.3477V1V1Z" fill="white"/>
</mask>
<g mask="url(#mask0)">
<path fill-rule="evenodd" clip-rule="evenodd" d="M10.4297 0.999634L10.3477 1.08163C10.3777 1.05663 10.4067 1.03163 10.4367 1.00663L10.4297 0.999634Z" fill="#313048"/>
</g>
<path fill-rule="evenodd" clip-rule="evenodd" d="M35.4708 37.6821L35.4548 37.6681C35.4058 37.7271 35.3598 37.7881 35.3088 37.8441L35.4708 37.6821Z" fill="#313048"/>
<path fill-rule="evenodd" clip-rule="evenodd" d="M4.47536 34.6488V12.7758C4.47536 12.5398 4.51136 12.3148 4.54436 12.0878C4.82636 8.77683 6.12836 5.75983 8.11736 3.32483L6.11936 5.33383C5.15136 6.10583 4.27536 6.98683 3.50736 7.95883L3.49936 7.96683L3.50036 7.96783C1.61336 10.3628 0.389363 13.3058 0.116363 16.5158C0.0833633 16.7428 0.0473633 16.9688 0.0473633 17.2038V39.0768C0.0473633 41.7028 2.17536 43.8318 4.80236 43.8318C6.01036 43.8318 7.11036 43.3778 7.94936 42.6348L7.95236 42.6378L8.00836 42.5818C8.11536 42.4828 8.21836 42.3798 8.31636 42.2728L12.4324 38.1438C11.5864 38.9188 10.4684 39.4038 9.23036 39.4038C6.60436 39.4038 4.47536 37.2748 4.47536 34.6488" fill="#313048"/>
<path fill-rule="evenodd" clip-rule="evenodd" d="M27.0542 34.6488V30.7708H13.9852V34.6488C13.9852 34.8368 13.9512 35.0158 13.9302 35.1988H22.6262V39.0768C22.6262 41.7028 24.7552 43.8318 27.3812 43.8318C28.5892 43.8318 29.6892 43.3778 30.5282 42.6348L30.5312 42.6378L30.5872 42.5808C30.6942 42.4828 30.7972 42.3798 30.8952 42.2728L35.0102 38.1438C34.1642 38.9188 33.0472 39.4038 31.8092 39.4038C29.1832 39.4038 27.0542 37.2748 27.0542 34.6488" fill="#313048"/>
<path fill-rule="evenodd" clip-rule="evenodd" d="M12.892 37.6821L12.875 37.6681C12.827 37.7271 12.781 37.7881 12.73 37.8451L12.892 37.6821Z" fill="#313048"/>
<path fill-rule="evenodd" clip-rule="evenodd" d="M168.509 21.8153H150.685V23.4983C150.685 24.4793 150.909 25.4073 151.298 26.2433H163.257C164.414 24.7483 166.326 24.1053 168.124 24.5453L172.166 20.0993L172.154 20.0793C171.282 21.1313 169.982 21.8153 168.509 21.8153" fill="#313048"/>
<path fill-rule="evenodd" clip-rule="evenodd" d="M162.64 9.66637C161.42 7.86037 159.393 6.78137 157.219 6.78137C154.251 6.78137 151.767 8.78037 150.974 11.4944C151.554 11.3254 152.157 11.2104 152.791 11.2104C154.095 11.2104 155.343 11.6044 156.399 12.3054H163.673C163.527 11.3614 163.179 10.4634 162.64 9.66637" fill="#313048"/>
<path fill-rule="evenodd" clip-rule="evenodd" d="M157.219 39.5431C149.598 39.5431 143.213 34.1971 141.587 27.0611C141.326 26.4721 141.175 25.8241 141.175 25.1391V12.7761C141.175 12.5881 141.209 12.4111 141.229 12.2291C141.458 8.83908 142.755 5.74408 144.768 3.25208L142.733 5.26508C139.361 7.99608 137.112 12.0641 136.801 16.6571C136.781 16.8391 136.746 17.0171 136.746 17.2041V29.5671C136.746 30.2521 136.898 30.9001 137.159 31.4891C138.785 38.6251 145.169 43.9711 152.791 43.9711C152.798 43.9711 152.804 43.9691 152.811 43.9691C156.089 43.9651 159.236 42.9441 161.865 41.1411L161.878 41.1791C161.878 41.1791 162.014 41.0661 162.252 40.8651C163.064 40.2721 163.822 39.6021 164.514 38.8621C165.672 37.7961 167.059 36.4541 168.352 35.0361C165.401 37.8731 161.427 39.5351 157.24 39.5411C157.233 39.5411 157.226 39.5431 157.219 39.5431" fill="#313048"/>
<path fill-rule="evenodd" clip-rule="evenodd" d="M35.309 37.8445L35.01 38.1445C35.115 38.0485 35.213 37.9495 35.309 37.8445" fill="#313048"/>
<path fill-rule="evenodd" clip-rule="evenodd" d="M12.7299 37.8447L12.4319 38.1437C12.5359 38.0487 12.6349 37.9487 12.7299 37.8447" fill="#313048"/>
<path fill-rule="evenodd" clip-rule="evenodd" d="M87.8232 37.8445L87.5242 38.1445C87.6292 38.0485 87.7272 37.9495 87.8232 37.8445" fill="#313048"/>
<path fill-rule="evenodd" clip-rule="evenodd" d="M71.3138 33.343C71.2658 33.411 71.2158 33.481 71.1558 33.555C71.2098 33.486 71.2608 33.414 71.3138 33.343" fill="#313048"/>
<path fill-rule="evenodd" clip-rule="evenodd" d="M71.0539 33.6779C70.8089 33.9729 70.5549 34.2669 70.2959 34.5599C70.5589 34.2759 70.8119 33.9819 71.0539 33.6779" fill="#313048"/>
</svg>
