<svg width="235" height="83" viewBox="0 0 235 83" fill="none" xmlns="http://www.w3.org/2000/svg">
<g clip-path="url(#clip0)">
<path fill-rule="evenodd" clip-rule="evenodd" d="M72.8286 47.9381C74.9916 47.9381 77.0476 46.3151 77.6976 45.2331V41.7711C77.3726 41.5551 75.8576 40.9061 73.9106 40.9061C71.3136 40.9061 69.5286 42.2581 69.5286 44.4761C69.5286 46.4231 70.8276 47.9381 72.8286 47.9381M73.4776 37.5521C75.7496 37.5521 77.7516 38.2011 77.7516 38.2011C77.8046 34.7931 77.1556 33.4411 74.3966 33.4411C71.9086 33.4411 69.4746 34.0901 68.3386 34.4141C67.6896 34.5761 67.3106 34.1441 67.1486 33.5491L66.7156 31.5471C66.5536 30.8441 66.9316 30.4651 67.4186 30.3031C67.7976 30.1401 70.8806 29.0591 74.8846 29.0591C81.8086 29.0591 82.4576 33.2781 82.4576 38.6881V50.2091C82.4576 50.7511 81.9696 51.2381 81.4296 51.2381H79.9146C79.4276 51.2381 79.2116 51.0211 78.9956 50.4801L78.4546 49.0201C77.2636 50.1561 75.1546 51.7781 71.8006 51.7781C67.7436 51.7781 64.8226 49.0201 64.8226 44.5301C64.8226 40.5811 67.9596 37.5521 73.4776 37.5521" fill="#646484"/>
<path fill-rule="evenodd" clip-rule="evenodd" d="M99.009 29.0588C102.309 29.0588 104.851 30.4108 106.853 32.8988C107.231 33.3868 107.123 34.0358 106.636 34.4138L104.851 36.0368C104.202 36.6318 103.823 36.1998 103.391 35.8208C102.417 34.7388 100.848 33.7648 99.063 33.7648C95.547 33.7648 92.788 36.7408 92.788 40.4188C92.788 44.1508 95.493 47.1268 99.009 47.1268C101.768 47.1268 102.904 45.7198 104.04 44.6388C104.527 44.1508 105.013 44.1508 105.5 44.5298L106.961 45.7198C107.502 46.1528 107.718 46.6938 107.34 47.2348C105.608 49.9938 102.688 51.7788 98.955 51.7788C92.896 51.7788 87.649 46.9638 87.649 40.4728C87.649 34.0898 93.005 29.0588 99.009 29.0588" fill="#646484"/>
<path fill-rule="evenodd" clip-rule="evenodd" d="M112.748 30.6277C112.748 30.0867 113.235 29.5997 113.775 29.5997H115.29C115.778 29.5997 116.048 29.8707 116.21 30.2487L116.805 32.0887C117.292 31.6007 119.78 29.0587 123.946 29.0587C127.083 29.0587 129.355 30.3027 130.924 32.5207C131.519 31.9257 134.656 29.0587 138.767 29.0587C145.367 29.0587 147.693 33.7107 147.693 39.3367V50.2097C147.693 50.7507 147.26 51.2377 146.665 51.2377H143.636C143.041 51.2377 142.608 50.7507 142.608 50.2097V39.1207C142.608 35.7127 141.04 33.7647 138.118 33.7647C134.819 33.7647 132.925 36.0917 132.546 36.4157C132.655 36.9027 132.709 37.9307 132.709 39.0127V50.2097C132.709 50.7507 132.222 51.2377 131.681 51.2377H128.814C128.219 51.2377 127.786 50.7507 127.786 50.2097V39.1207C127.786 35.6577 126.217 33.7647 123.188 33.7647C119.943 33.7647 118.103 36.3077 117.833 37.0107V50.2097C117.833 50.7507 117.346 51.2377 116.805 51.2377H113.775C113.235 51.2377 112.748 50.7507 112.748 50.2097V30.6277Z" fill="#646484"/>
<path fill-rule="evenodd" clip-rule="evenodd" d="M168.627 38.0385C168.465 35.4425 166.301 33.2245 163.651 33.2245C160.73 33.2245 158.457 35.3335 158.133 38.0385H168.627ZM163.705 29.0585C169.33 29.0585 173.658 33.2785 173.658 39.0665C173.658 39.4445 173.604 40.1485 173.55 40.5265C173.496 41.0685 173.063 41.4465 172.576 41.4465H157.862C158.025 44.3675 160.567 47.2345 164.083 47.2345C166.031 47.2345 167.816 46.3695 168.898 45.6655C169.547 45.2875 169.926 45.0705 170.358 45.6115L171.873 47.6675C172.252 48.1005 172.414 48.5335 171.765 49.0735C170.196 50.4265 167.383 51.7785 163.758 51.7785C157.213 51.7785 152.886 46.6395 152.886 40.4185C152.886 34.3055 157.213 29.0585 163.705 29.0585V29.0585Z" fill="#646484"/>
<path fill-rule="evenodd" clip-rule="evenodd" d="M200.487 29.0588C203.787 29.0588 206.329 30.4108 208.331 32.8988C208.709 33.3868 208.601 34.0358 208.114 34.4138L206.329 36.0368C205.68 36.6318 205.301 36.1998 204.869 35.8208C203.895 34.7388 202.326 33.7648 200.541 33.7648C197.025 33.7648 194.266 36.7408 194.266 40.4188C194.266 44.1508 196.971 47.1268 200.487 47.1268C203.246 47.1268 204.382 45.7198 205.518 44.6388C206.005 44.1508 206.491 44.1508 206.978 44.5298L208.439 45.7198C208.98 46.1528 209.196 46.6938 208.818 47.2348C207.086 49.9938 204.166 51.7788 200.433 51.7788C194.374 51.7788 189.127 46.9638 189.127 40.4728C189.127 34.0898 194.483 29.0588 200.487 29.0588" fill="#646484"/>
<path fill-rule="evenodd" clip-rule="evenodd" d="M223.529 47.1265C226.938 47.1265 229.642 44.0965 229.642 40.3645C229.642 36.7405 226.938 33.7645 223.529 33.7645C220.121 33.7645 217.416 36.7405 217.416 40.3645C217.416 44.0965 220.121 47.1265 223.529 47.1265M223.529 29.0585C229.588 29.0585 234.457 34.2525 234.457 40.3645C234.457 46.5855 229.588 51.7785 223.529 51.7785C217.471 51.7785 212.602 46.5855 212.602 40.3645C212.602 34.2525 217.471 29.0585 223.529 29.0585" fill="#646484"/>
<mask id="mask0" mask-type="alpha" maskUnits="userSpaceOnUse" x="0" y="0" width="43" height="83">
<path fill-rule="evenodd" clip-rule="evenodd" d="M42.9863 0H0.590027L0.590027 82.7661H42.9863V0V0Z" fill="white"/>
</mask>
<g mask="url(#mask0)">
<path fill-rule="evenodd" clip-rule="evenodd" d="M21.4501 40.4183C18.3151 40.3813 15.7451 37.8113 15.7081 34.6743C15.6721 31.5393 18.1851 29.0273 21.3201 29.0623C24.4561 29.0973 27.0271 31.6693 27.0631 34.8053C27.1001 37.9423 24.5871 40.4543 21.4501 40.4183M34.1711 52.1203C34.1711 52.1203 39.1571 16.2733 22.6511 2.84933L21.7581 0.397329C21.5681 -0.123671 20.8351 -0.135671 20.6291 0.380329L19.6571 2.80833C3.44409 15.8513 9.14109 51.8333 9.14109 51.8333C-3.39291 61.6833 -0.343908 57.9923 6.80909 75.3643C8.17209 78.6813 10.5621 77.8993 11.6431 75.5053C12.7231 73.1143 15.1091 67.8323 15.1091 67.8323H16.2421L20.6211 81.8233C21.0141 83.0803 22.7931 83.0803 23.1871 81.8233L27.5651 67.8323H28.6051C28.6051 67.8323 31.1951 73.3263 32.3311 75.7443C33.4671 78.1633 35.8741 78.9993 37.1631 75.7133C43.9181 58.5013 46.9341 62.2603 34.1711 52.1203" fill="#313048"/>
</g>
</g>
<defs>
<clipPath id="clip0">
<rect width="235" height="83" fill="white"/>
</clipPath>
</defs>
</svg>
