<svg width="212" height="70" viewBox="0 0 212 70" fill="none" xmlns="http://www.w3.org/2000/svg">
<g clip-path="url(#clip0)">
<path fill-rule="evenodd" clip-rule="evenodd" d="M16.0531 50.4596L23.8061 42.7066H39.5541L45.5931 63.9086L16.0531 50.4596ZM5.20412 23.5676L19.6081 25.4006V40.6736C19.6081 40.8216 19.6251 40.9666 19.6551 41.1056L12.7971 47.9636L5.20412 23.5676ZM19.6081 21.3006L6.69112 19.6566L19.6081 6.74059V21.3006ZM47.9881 11.2826L36.0371 23.3926L23.6751 21.8186V4.69159L47.9881 11.2826ZM23.6751 38.6396V25.9186L35.1901 27.3846L38.3961 38.6396H23.6751ZM57.6231 38.6396H42.6251L39.0591 26.1206L50.9601 14.0606L57.6231 38.6396ZM49.1341 61.4916L43.7831 42.7066H57.1201L49.1341 61.4916ZM62.2441 40.1416L54.0041 9.74158C53.8151 9.04458 53.2701 8.49959 52.5731 8.31059L22.1731 0.0705852C21.5621 -0.0954148 20.9091 0.0335852 20.4061 0.418585C20.3721 0.443585 20.3431 0.472585 20.3111 0.499585L20.2031 0.392585L0.88412 19.7126L0.88612 19.7146C0.84412 19.7566 0.80212 19.7976 0.76312 19.8436C0.31912 20.3736 0.17412 21.0936 0.38012 21.7546L9.55112 51.2226C9.72412 51.7756 10.1231 52.2286 10.6511 52.4686L47.9111 69.4336C48.1811 69.5566 48.4681 69.6166 48.7531 69.6166C49.2311 69.6166 49.7041 69.4476 50.0801 69.1236C50.3221 68.9166 50.5031 68.6586 50.6221 68.3766L50.6251 68.3786L61.8621 41.9486C61.8731 41.9346 61.8861 41.9226 61.8961 41.9086C62.2811 41.4056 62.4091 40.7526 62.2441 40.1416V40.1416Z" fill="#313048"/>
</g>
<path fill-rule="evenodd" clip-rule="evenodd" d="M95.4637 28.5876L92.0947 37.8856H98.8337L95.4637 28.5876ZM101.426 45.5976L100.097 41.9356H90.8307L89.4697 45.5976H84.2207L92.5797 23.9866H98.3477L106.674 45.5976H101.426Z" fill="#313048"/>
<path fill-rule="evenodd" clip-rule="evenodd" d="M119.504 34.8082C119.504 28.1662 124.526 23.6302 131.006 23.6302C135.768 23.6302 138.522 26.2222 140.045 28.9112L136.092 30.8552C135.185 29.1062 133.241 27.7122 131.006 27.7122C127.085 27.7122 124.234 30.7262 124.234 34.8082C124.234 38.8902 127.085 41.9032 131.006 41.9032C133.241 41.9032 135.185 40.5432 136.092 38.7602L140.045 40.6722C138.49 43.3612 135.768 45.9862 131.006 45.9862C124.526 45.9862 119.504 41.4502 119.504 34.8082" fill="#313048"/>
<path fill-rule="evenodd" clip-rule="evenodd" d="M174.55 45.5971V30.4661L168.459 45.5971H166.45L160.359 30.4661V45.5971H155.758V23.9871H162.206L167.455 37.0431L172.703 23.9871H179.183V45.5971H174.55Z" fill="#313048"/>
<path fill-rule="evenodd" clip-rule="evenodd" d="M196.419 45.5971V23.9871H211.712V28.0361H201.02V32.6051H211.485V36.6551H201.02V41.5471H211.712V45.5971H196.419Z" fill="#313048"/>
<defs>
<clipPath id="clip0">
<rect width="63" height="70" fill="white"/>
</clipPath>
</defs>
</svg>
