<svg width="75" height="95" viewBox="0 0 75 95" fill="none" xmlns="http://www.w3.org/2000/svg">
<path fill-rule="evenodd" clip-rule="evenodd" d="M8.31851 89.4897L6.89251 86.3947H6.87451L5.46751 89.4897H8.31851ZM0.60851 93.5037L6.48051 80.8787C6.53651 80.7667 6.66751 80.6727 6.79951 80.6727H6.98651C7.11751 80.6727 7.24951 80.7667 7.30551 80.8787L13.1775 93.5037C13.2895 93.7477 13.1395 93.9917 12.8585 93.9917H10.7765C10.4385 93.9917 10.2885 93.8797 10.1195 93.5227L9.44451 92.0407H4.34151L3.66651 93.5417C3.57251 93.7667 3.36651 93.9917 2.99051 93.9917H0.92751C0.64651 93.9917 0.49551 93.7477 0.60851 93.5037V93.5037Z" fill="#313048"/>
<path fill-rule="evenodd" clip-rule="evenodd" d="M27.9219 80.6729C29.7979 80.6729 31.1859 81.2549 32.4619 82.4179C32.6309 82.5679 32.6309 82.7929 32.4809 82.9429L31.0169 84.4619C30.8859 84.5939 30.6799 84.5939 30.5479 84.4619C29.8539 83.8429 28.9349 83.5059 28.0159 83.5059C25.8959 83.5059 24.3389 85.2689 24.3389 87.3699C24.3389 89.4519 25.9149 91.1779 28.0349 91.1779C28.9159 91.1779 29.8729 90.8589 30.5479 90.2779C30.6799 90.1649 30.9229 90.1649 31.0359 90.2969L32.4989 91.8539C32.6309 91.9849 32.6119 92.2289 32.4809 92.3599C31.2049 93.5979 29.5919 94.1799 27.9219 94.1799C24.1699 94.1799 21.1499 91.1969 21.1499 87.4449C21.1499 83.6929 24.1699 80.6729 27.9219 80.6729" fill="#313048"/>
<path fill-rule="evenodd" clip-rule="evenodd" d="M43.5294 80.973C43.5484 80.804 43.7174 80.673 43.8674 80.673H44.1674C44.2614 80.673 44.4294 80.748 44.4864 80.86L48.8384 88.964H48.8764L53.2284 80.86C53.2844 80.748 53.4534 80.673 53.5464 80.673H53.8474C53.9974 80.673 54.1654 80.804 54.1844 80.973L56.3044 93.579C56.3424 93.823 56.1734 93.992 55.9484 93.992H53.7344C53.5654 93.992 53.3964 93.842 53.3784 93.692L52.5334 87.895H52.4964L49.3444 93.973C49.2884 94.086 49.1194 94.18 49.0254 94.18H48.6884C48.5754 94.18 48.4254 94.086 48.3694 93.973L45.1994 87.895H45.1614L44.3364 93.692C44.3174 93.842 44.1674 93.992 43.9794 93.992H41.7664C41.5404 93.992 41.3724 93.823 41.4094 93.579L43.5294 80.973Z" fill="#313048"/>
<path fill-rule="evenodd" clip-rule="evenodd" d="M66.2092 81.2168C66.2092 81.0288 66.3592 80.8608 66.5662 80.8608H74.3322C74.5382 80.8608 74.6882 81.0288 74.6882 81.2168V83.2618C74.6882 83.4488 74.5382 83.6178 74.3322 83.6178H69.1352V85.9438H73.4132C73.6002 85.9438 73.7692 86.1128 73.7692 86.3008V88.3458C73.7692 88.5518 73.6002 88.7018 73.4132 88.7018H69.1352V91.2338H74.3322C74.5382 91.2338 74.6882 91.4028 74.6882 91.5908V93.6358C74.6882 93.8228 74.5382 93.9918 74.3322 93.9918H66.5662C66.3592 93.9918 66.2092 93.8228 66.2092 93.6358V81.2168Z" fill="#313048"/>
<path fill-rule="evenodd" clip-rule="evenodd" d="M34.8581 12.0636C36.4321 12.0636 37.7091 10.7876 37.7091 9.21257C37.7091 7.63757 36.4321 6.36157 34.8581 6.36157C33.2831 6.36157 32.0071 7.63757 32.0071 9.21257C32.0071 10.7876 33.2831 12.0636 34.8581 12.0636" fill="#313048"/>
<path fill-rule="evenodd" clip-rule="evenodd" d="M42.4375 6.58324C44.2555 6.58324 45.7295 5.10924 45.7295 3.29124C45.7295 1.47324 44.2555 0.000244141 42.4375 0.000244141C40.6195 0.000244141 39.1455 1.47324 39.1455 3.29124C39.1455 5.10924 40.6195 6.58324 42.4375 6.58324" fill="#313048"/>
<path fill-rule="evenodd" clip-rule="evenodd" d="M46.7134 58.7575H28.5214C26.4864 58.7575 25.2884 56.4735 26.4454 54.7995L35.7504 41.3325C36.7664 39.8615 38.9484 39.8845 39.9324 41.3765L48.8194 54.8435C49.9274 56.5215 48.7234 58.7575 46.7134 58.7575M57.7834 55.2955L44.8524 33.9375V22.0095H45.1664C47.0374 22.0095 48.5544 20.4915 48.5544 18.6205C48.5544 16.7495 47.0374 15.2325 45.1664 15.2325H30.0934C28.2224 15.2325 26.7054 16.7495 26.7054 18.6205C26.7054 20.4915 28.2224 22.0095 30.0934 22.0095H30.4074V33.9375L17.4764 55.2955C15.2104 59.8455 18.5204 65.1905 23.6034 65.1905H51.6554C56.7394 65.1905 60.0484 59.8455 57.7834 55.2955" fill="#313048"/>
</svg>
