<svg width="478" height="378" viewBox="0 0 478 378" fill="none" xmlns="http://www.w3.org/2000/svg">
<path d="M135.5 0L105.473 24.538L165.451 24.4765L135.5 0Z" fill="#FF7E62"/>
<rect x="79" y="48" width="399" height="330" rx="20" fill="#FFC1BD" fill-opacity="0.5"/>
<line x1="2.5" y1="296.021" x2="2.5" y2="77" stroke="#FFB0AB" stroke-width="5"/>
<line x1="1" y1="293.5" x2="156" y2="293.5" stroke="#FFB0AB" stroke-width="5"/>
<line y1="77.5" x2="51" y2="77.5" stroke="#FFB0AB" stroke-width="5"/>
<path d="M220.232 69.2439L201.405 53.8583L201.406 69.2439H220.232Z" fill="#FF7E62"/>
<path d="M201.407 84.6279L220.232 69.2439H201.406L201.407 84.6279Z" fill="#FF7E62"/>
<path d="M69.5943 53.8591L50.7683 69.2439H69.5929L69.5943 53.8591Z" fill="#FF7E62"/>
<path d="M135.5 138.488L69.591 84.6262L69.5929 69.2439H50.7683L114.317 121.177L135.5 138.488Z" fill="#FF7E62"/>
<path d="M188.111 167H83.889C75.6662 167 69 161.39 69 154.469V28.5312C69.0004 21.6103 75.6662 16 83.889 16H152.22C156.027 16 159.688 17.2269 162.453 19.4282L198.343 48.0058C201.316 50.3726 203 53.6648 203 57.1089V154.469C203 161.39 196.334 167 188.111 167Z" fill="#FFA996"/>
<path d="M197.982 48.0058L162.091 19.4282C159.326 17.2266 155.665 16 151.859 16H135.638V167H187.75C195.972 167 202.639 161.39 202.639 154.469V57.1089C202.638 53.6648 200.954 50.3729 197.982 48.0058V48.0058Z" fill="#FF957E"/>
<path d="M163.183 53.5934H202.036C201.302 51.4815 199.917 49.5471 197.982 48.0058L162.091 19.4282C160.286 17.991 158.098 16.9727 155.738 16.4365V47.3278C155.738 50.7881 159.071 53.5934 163.183 53.5934V53.5934Z" fill="#FF542E"/>
<path d="M179.077 84.2003H91.8949C88.8757 84.2003 86.4285 82.2196 86.4285 79.7764C86.4285 77.3333 88.8757 75.3526 91.8949 75.3526H179.077C182.097 75.3526 184.544 77.3333 184.544 79.7764C184.544 82.2196 182.097 84.2003 179.077 84.2003Z" fill="#FC785B"/>
<path d="M179.077 107.794H91.8949C88.8757 107.794 86.4285 105.813 86.4285 103.37C86.4285 100.927 88.8757 98.9464 91.8949 98.9464H179.077C182.097 98.9464 184.544 100.927 184.544 103.37C184.544 105.813 182.097 107.794 179.077 107.794Z" fill="#FC785B"/>
<path d="M121.9 131.388H91.8949C88.8757 131.388 86.4285 129.407 86.4285 126.964C86.4285 124.521 88.8757 122.54 91.8949 122.54H121.9C124.919 122.54 127.367 124.521 127.367 126.964C127.367 129.407 124.919 131.388 121.9 131.388V131.388Z" fill="#FC785B"/>
<path d="M184.696 79.7764C184.696 77.3333 182.249 75.3526 179.23 75.3526H135.638V84.2003H179.23C182.249 84.2003 184.696 82.2196 184.696 79.7764Z" fill="#D8674E"/>
<path d="M179.23 98.9464H135.638V107.794H179.23C182.249 107.794 184.696 105.813 184.696 103.37C184.696 100.927 182.249 98.9464 179.23 98.9464Z" fill="#D8674E"/>
<path d="M50.7683 69.2439V167L114.317 121.177L50.7683 69.2439Z" fill="#FF7E62"/>
<path d="M114.317 121.177L50.7683 167H135.5V138.488L114.317 121.177Z" fill="#FF7E62"/>
<path d="M135.5 138.488V167H220.232L156.683 121.177L135.5 138.488Z" fill="#FF7E62"/>
<path d="M201.407 84.6279V84.6283L156.683 121.177L220.232 167V69.2439L201.407 84.6279Z" fill="#FF7E62"/>
<rect x="156" y="144" width="265" height="200" fill="white"/>
<rect x="156" y="144" width="265" height="31" fill="#FFB0AB"/>
<rect x="206" y="273" width="170" height="46" fill="#FFB0AB"/>
<circle cx="181" cy="160" r="10" fill="#FF7E62"/>
<circle cx="212" cy="160" r="10" fill="#FF7E62"/>
<circle cx="242" cy="160" r="10" fill="#FF7E62"/>
<circle cx="51" cy="75" r="15" fill="#FF542E"/>
<line x1="199.492" y1="222.84" x2="317.603" y2="222.84" stroke="#FFB0AB" stroke-width="6"/>
<path d="M193.806 241.889L196.126 239.668L179.242 223.5L196.126 207.332L193.806 205.111L174.602 223.5L193.806 241.889Z" fill="#FFB0AB"/>
<path d="M193.806 243L197.286 239.668L180.402 223.5L197.286 207.332L193.806 204L173.442 223.5L193.806 243ZM194.966 239.668L193.806 240.779L175.762 223.5L193.806 206.221L194.966 207.332L178.082 223.5L194.966 239.668Z" fill="#FFB0AB"/>
<path d="M322.194 241.889L319.874 239.668L336.758 223.5L319.874 207.332L322.194 205.111L341.398 223.5L322.194 241.889Z" fill="#FFB0AB"/>
<path d="M322.194 243L318.714 239.668L335.598 223.5L318.714 207.332L322.194 204L342.558 223.5L322.194 243ZM321.034 239.668L322.194 240.779L340.238 223.5L322.194 206.221L321.034 207.332L337.918 223.5L321.034 239.668Z" fill="#FFB0AB"/>
<path d="M45.9297 81H44.4297V69.625H45.9297V81ZM57.4297 75.6797C57.4297 76.7943 57.2422 77.7682 56.8672 78.6016C56.4922 79.4297 55.9609 80.0625 55.2734 80.5C54.5859 80.9375 53.7839 81.1562 52.8672 81.1562C51.9714 81.1562 51.1771 80.9375 50.4844 80.5C49.7917 80.0573 49.2526 79.4297 48.8672 78.6172C48.487 77.7995 48.2917 76.8542 48.2812 75.7812V74.9609C48.2812 73.8672 48.4714 72.901 48.8516 72.0625C49.2318 71.224 49.7682 70.5833 50.4609 70.1406C51.1589 69.6927 51.9557 69.4688 52.8516 69.4688C53.763 69.4688 54.5651 69.6901 55.2578 70.1328C55.9557 70.5703 56.4922 71.2083 56.8672 72.0469C57.2422 72.8802 57.4297 73.8516 57.4297 74.9609V75.6797ZM55.9375 74.9453C55.9375 73.5964 55.6667 72.5625 55.125 71.8438C54.5833 71.1198 53.8255 70.7578 52.8516 70.7578C51.9036 70.7578 51.1562 71.1198 50.6094 71.8438C50.0677 72.5625 49.7891 73.5625 49.7734 74.8438V75.6797C49.7734 76.987 50.0469 78.0156 50.5938 78.7656C51.1458 79.5104 51.9036 79.8828 52.8672 79.8828C53.8359 79.8828 54.5859 79.5312 55.1172 78.8281C55.6484 78.1198 55.9219 77.1068 55.9375 75.7891V74.9453Z" fill="white"/>
<circle cx="234" cy="295" r="14" fill="#FF7E62"/>
<line x1="234" y1="287.5" x2="234" y2="302.5" stroke="white" stroke-width="2"/>
<line x1="226.5" y1="295" x2="241.5" y2="295" stroke="white" stroke-width="2"/>
</svg>
