<svg width="413" height="399" viewBox="0 0 413 399" fill="none" xmlns="http://www.w3.org/2000/svg">
<rect y="69" width="399" height="330" rx="20" fill="#BDEFFF" fill-opacity="0.5"/>
<path d="M353 313C366.807 313 378 301.807 378 288C378 274.193 366.807 263 353 263C339.193 263 328 274.193 328 288C328 301.807 339.193 313 353 313Z" fill="#96DFFF"/>
<path d="M366 278L350 296L340 288" stroke="#00C2FF" stroke-width="2" stroke-miterlimit="10" stroke-linecap="round" stroke-linejoin="round"/>
<g clip-path="url(#clip0)">
<path d="M375.333 10.25H337.667V14.35H375.333V10.25Z" fill="#60C0E9"/>
<path d="M393.225 76.875C393.225 72.919 390.267 69.7 386.633 69.7H382.867V41H379.1V69.7H374.392C370.757 69.7 367.8 72.9193 367.8 76.875C367.8 78.8835 368.567 80.6962 369.793 82C368.567 83.3038 367.8 85.1165 367.8 87.125C367.8 88.507 368.178 89.7874 368.803 90.8837C366.55 92.0258 364.975 94.4968 364.975 97.375C364.975 98.4797 365.225 99.5144 365.636 100.45H350.85C350.85 94.1819 347.964 88.6346 343.563 85.2992C347.819 83.5334 350.85 79.0452 350.85 73.8C350.85 72.6679 350.008 71.75 348.967 71.75H333.9V51.25H330.133V71.75C327.018 71.75 324.483 74.5088 324.483 77.9V123H328.25V77.9C328.25 76.7699 329.094 75.85 330.133 75.85H346.844C346.007 79.3824 343.053 82 339.55 82H333.9C332.859 82 332.017 82.9179 332.017 84.05C332.017 85.1821 332.859 86.1 333.9 86.1C341.168 86.1 347.083 92.5373 347.083 100.45V102.5C347.083 103.632 347.926 104.55 348.967 104.55H359.986C359.575 105.486 359.325 106.52 359.325 107.625C359.325 111.581 362.283 114.8 365.917 114.8V123H369.683V114.8H377.217H378.158C381.793 114.8 384.75 111.581 384.75 107.625C384.75 106.509 384.494 105.464 384.074 104.521C387.583 104.365 390.4 101.232 390.4 97.375C390.4 95.993 390.022 94.7126 389.397 93.6163C391.65 92.4742 393.225 90.0032 393.225 87.125C393.225 85.1165 392.458 83.3038 391.232 82C392.458 80.6962 393.225 78.8835 393.225 76.875ZM378.158 110.7H377.217H367.8H365.917C364.359 110.7 363.092 109.321 363.092 107.625C363.092 105.929 364.359 104.55 365.917 104.55H371.567H378.158C379.716 104.55 380.983 105.929 380.983 107.625C380.983 109.321 379.716 110.7 378.158 110.7ZM383.808 100.45H378.158H371.567C370.009 100.45 368.742 99.0706 368.742 97.375C368.742 95.6794 370.009 94.3 371.567 94.3H374.392H383.808C385.366 94.3 386.633 95.6794 386.633 97.375C386.633 99.0706 385.366 100.45 383.808 100.45ZM386.633 90.2H383.808H374.392C372.834 90.2 371.567 88.8206 371.567 87.125C371.567 85.4294 372.834 84.05 374.392 84.05H386.633C388.191 84.05 389.458 85.4294 389.458 87.125C389.458 88.8206 388.191 90.2 386.633 90.2ZM386.633 79.95H374.392C372.834 79.95 371.567 78.5706 371.567 76.875C371.567 75.1794 372.834 73.8 374.392 73.8H386.633C388.191 73.8 389.458 75.1794 389.458 76.875C389.458 78.5706 388.191 79.95 386.633 79.95Z" fill="#60C0E9"/>
<path d="M328.245 26.0934C328.206 25.5048 327.937 24.9624 327.505 24.6059L325.545 22.9882C325.076 20.4039 322.992 18.45 320.5 18.45C317.688 18.45 315.394 20.9385 315.357 24.0124C313.853 23.7262 312.414 23.0976 311.127 22.1536L310.47 21.6711C309.895 21.2477 309.148 21.2016 308.532 21.5599C307.918 21.9153 307.533 22.612 307.533 23.3698V25.0515C307.533 27.522 308.217 29.8783 309.487 31.8573L308.078 33.4089C307.543 33.9964 307.386 34.8764 307.679 35.64C307.971 36.4026 308.657 36.9 309.417 36.9H318.543C322.183 36.9 325.191 33.8801 325.596 30.0043L327.706 27.6812C328.086 27.2617 328.283 26.6831 328.245 26.0934ZM322.42 27.6691C322.07 28.0525 321.875 28.5711 321.875 29.1105C321.875 31.1446 320.38 32.8 318.543 32.8H313.752C314.05 32.0533 313.921 31.1523 313.364 30.5389C312.485 29.57 311.856 28.3507 311.537 27.0364C313.334 27.8613 315.265 28.2898 317.241 28.2898C318.282 28.2898 319.124 27.3719 319.124 26.2398V24.0875C319.124 23.2396 319.742 22.55 320.5 22.55C321.258 22.55 321.876 23.2396 321.876 24.0875C321.876 24.7292 322.152 25.3337 322.62 25.7211L323.518 26.4609L322.42 27.6691Z" fill="#60C0E9"/>
<path d="M362.15 34.85V30.75H356.5C355.459 30.75 354.617 31.6679 354.617 32.8V38.95H350.85V43.05H354.617V51.25H358.383V43.05H362.15V38.95H358.383V34.85H362.15Z" fill="#60C0E9"/>
<path d="M367.8 22.55H345.2C342.084 22.55 339.55 25.3088 339.55 28.7V53.3C339.55 56.6912 342.084 59.45 345.2 59.45H367.8C370.915 59.45 373.45 56.6912 373.45 53.3V28.7C373.45 25.3088 370.915 22.55 367.8 22.55ZM369.683 53.3C369.683 54.43 368.839 55.35 367.8 55.35H345.2C344.161 55.35 343.317 54.43 343.317 53.3V28.7C343.317 27.5699 344.161 26.65 345.2 26.65H367.8C368.839 26.65 369.683 27.5699 369.683 28.7V53.3Z" fill="#60C0E9"/>
<path d="M328.25 10.25H305.65C302.534 10.25 300 13.0088 300 16.4V41C300 44.3912 302.534 47.15 305.65 47.15H328.25C331.366 47.15 333.9 44.3912 333.9 41V16.4C333.9 13.0088 331.366 10.25 328.25 10.25ZM330.133 41C330.133 42.1301 329.289 43.05 328.25 43.05H305.65C304.611 43.05 303.767 42.1301 303.767 41V16.4C303.767 15.2699 304.611 14.35 305.65 14.35H328.25C329.289 14.35 330.133 15.2699 330.133 16.4V41Z" fill="#60C0E9"/>
<path d="M407.35 0H384.75C381.634 0 379.1 2.75879 379.1 6.15V30.75C379.1 34.1412 381.634 36.9 384.75 36.9H407.35C410.465 36.9 413 34.1412 413 30.75V6.15C413 2.75879 410.465 0 407.35 0ZM409.233 30.75C409.233 31.8801 408.389 32.8 407.35 32.8H384.75C383.711 32.8 382.867 31.8801 382.867 30.75V20.5H386.824C387.699 25.1725 391.503 28.7 396.05 28.7C400.597 28.7 404.401 25.1725 405.276 20.5H409.233V30.75ZM390.4 18.45C390.4 15.0588 392.934 12.3 396.05 12.3C399.165 12.3 401.7 15.0588 401.7 18.45C401.7 21.8412 399.165 24.6 396.05 24.6C392.934 24.6 390.4 21.8412 390.4 18.45ZM409.233 16.4H405.276C404.401 11.7275 400.597 8.2 396.05 8.2C391.503 8.2 387.699 11.7275 386.824 16.4H382.867V6.15C382.867 5.01994 383.711 4.1 384.75 4.1H407.35C408.389 4.1 409.233 5.01994 409.233 6.15V16.4Z" fill="#60C0E9"/>
<path d="M358.383 84.05H354.617V88.15H358.383V84.05Z" fill="#60C0E9"/>
</g>
<rect x="91" y="31" width="108" height="31" fill="#96DFFF"/>
<line x1="127" y1="46.5" x2="191" y2="46.5" stroke="#00C2FF" stroke-width="5"/>
<line x1="199" y1="46.5" x2="300" y2="46.5" stroke="#00C2FF" stroke-width="5"/>
<line x1="353.5" y1="263" x2="353.5" y2="123" stroke="#00C2FF" stroke-width="5"/>
<circle cx="108.5" cy="46.5" r="7.5" fill="#00C2FF"/>
<rect x="11" y="152" width="265" height="200" fill="white"/>
<rect x="11" y="152" width="265" height="31" fill="#96DFFF"/>
<circle cx="36" cy="168" r="10" fill="#00C2FF"/>
<circle cx="67" cy="168" r="10" fill="#00C2FF"/>
<circle cx="97" cy="168" r="10" fill="#00C2FF"/>
<path d="M181.988 327H109.374C103.645 327 99 323.247 99 318.618V234.382C99.0002 229.753 103.645 226 109.374 226H156.982C159.634 226 162.185 226.821 164.111 228.293L189.117 247.408C191.188 248.991 192.361 251.193 192.361 253.497V318.618C192.361 323.247 187.717 327 181.988 327Z" fill="#96DFFF"/>
<path d="M189.117 247.408L164.111 228.293C162.185 226.82 159.634 226 156.982 226H145.681V327H181.988C187.717 327 192.361 323.247 192.361 318.618V253.497C192.361 251.193 191.188 248.991 189.117 247.408V247.408Z" fill="#96DFFF"/>
<path d="M164.872 251.145H191.941C191.43 249.733 190.465 248.439 189.117 247.408L164.111 228.293C162.854 227.332 161.329 226.651 159.685 226.292V246.954C159.685 249.269 162.007 251.145 164.872 251.145V251.145Z" fill="#00C2FF"/>
<circle cx="105" cy="232" r="14" fill="#00C2FF"/>
<line x1="105" y1="224.5" x2="105" y2="239.5" stroke="white" stroke-width="2"/>
<line x1="97.5" y1="232" x2="112.5" y2="232" stroke="white" stroke-width="2"/>
<path d="M131.867 305.889L133.789 303.668L119.8 287.5L133.789 271.332L131.867 269.111L115.956 287.5L131.867 305.889Z" fill="#00C2FF"/>
<path d="M131.867 307L134.75 303.668L120.761 287.5L134.75 271.332L131.867 268L114.994 287.5L131.867 307ZM132.828 303.668L131.867 304.779L116.917 287.5L131.867 270.221L132.828 271.332L118.839 287.5L132.828 303.668Z" fill="#00C2FF"/>
<path d="M160.133 305.889L158.211 303.668L172.2 287.5L158.211 271.332L160.133 269.111L176.044 287.5L160.133 305.889Z" fill="#00C2FF"/>
<path d="M160.133 307L157.25 303.668L171.239 287.5L157.25 271.332L160.133 268L177.006 287.5L160.133 307ZM159.172 303.668L160.133 304.779L175.083 287.5L160.133 270.221L159.172 271.332L173.161 287.5L159.172 303.668Z" fill="#00C2FF"/>
<line y1="-2.5" x2="39.731" y2="-2.5" transform="matrix(0.291951 -0.956433 0.913737 0.406307 141.97 307)" stroke="#00C2FF" stroke-width="5"/>
<path d="M202.232 286.232C201.256 287.209 201.256 288.791 202.232 289.768L218.142 305.678C219.118 306.654 220.701 306.654 221.678 305.678C222.654 304.701 222.654 303.118 221.678 302.142L207.536 288L221.678 273.858C222.654 272.882 222.654 271.299 221.678 270.322C220.701 269.346 219.118 269.346 218.142 270.322L202.232 286.232ZM328 285.5H204V290.5H328V285.5Z" fill="#00C2FF"/>
<path d="M147.768 86.2322C146.791 85.2559 145.209 85.2559 144.232 86.2322L128.322 102.142C127.346 103.118 127.346 104.701 128.322 105.678C129.299 106.654 130.882 106.654 131.858 105.678L146 91.5355L160.142 105.678C161.118 106.654 162.701 106.654 163.678 105.678C164.654 104.701 164.654 103.118 163.678 102.142L147.768 86.2322ZM148.5 225.035V88H143.5V225.035H148.5Z" fill="#00C2FF"/>
<defs>
<clipPath id="clip0">
<rect width="113" height="123" fill="white" transform="translate(300)"/>
</clipPath>
</defs>
</svg>
