<svg width="435" height="330" viewBox="0 0 435 330" fill="none" xmlns="http://www.w3.org/2000/svg">
<rect x="36" width="399" height="330" rx="20" fill="#BDFFC0" fill-opacity="0.5"/>
<line x1="108" y1="47.5" x2="172" y2="47.5" stroke="#3D9440" stroke-width="5"/>
<rect x="158" y="65" width="265" height="200" fill="white"/>
<rect x="158" y="65" width="265" height="31" fill="#7BCC74"/>
<rect y="32" width="108" height="31" fill="#7BCC74"/>
<circle cx="183" cy="81" r="10" fill="#3F9C43"/>
<circle cx="214" cy="81" r="10" fill="#3F9C43"/>
<circle cx="244" cy="81" r="10" fill="#3F9C43"/>
<line x1="172" y1="179.5" x2="266" y2="179.5" stroke="#3D9440" stroke-width="5"/>
<path d="M290 203C303.807 203 315 191.807 315 178C315 164.193 303.807 153 290 153C276.193 153 265 164.193 265 178C265 191.807 276.193 203 290 203Z" fill="#7BCC74"/>
<path d="M303 168L287 186L277 178" stroke="white" stroke-width="2" stroke-miterlimit="10" stroke-linecap="round" stroke-linejoin="round"/>
<path d="M22.4057 46.2754C24.9671 46.2754 27.0434 44.199 27.0434 41.6377C27.0434 39.0764 24.9671 37 22.4057 37C19.8444 37 17.7681 39.0764 17.7681 41.6377C17.7681 44.199 19.8444 46.2754 22.4057 46.2754Z" fill="#2E7B31"/>
<path d="M22.4058 48.5942C17.7634 48.5942 14 52.3576 14 57H30.8116C30.8116 52.3576 27.0482 48.5942 22.4058 48.5942Z" fill="#2E7B31"/>
<line x1="169.5" y1="295" x2="169.5" y2="45" stroke="#3D9440" stroke-width="5"/>
<path d="M62.6608 53C62.3618 53.5204 61.8187 53.8081 61.2595 53.8081C60.9855 53.8081 60.7075 53.7386 60.453 53.5916L55.6187 50.7994V56.3837C55.6187 57.2759 54.8946 58 54.0024 58C53.1102 58 52.3861 57.2759 52.3861 56.3837V50.7986L47.5493 53.5916C47.2947 53.7386 47.0167 53.8081 46.7428 53.8081C46.1844 53.8081 45.6405 53.5204 45.3415 53C44.8954 52.2266 45.1596 51.2382 45.933 50.7938L50.7682 48.0008L45.9314 45.2079C45.158 44.761 44.8937 43.7742 45.3398 43.0008C45.7859 42.2274 46.7751 41.9623 47.5477 42.4092L52.3836 45.2014V39.6163C52.3836 38.7241 53.1077 38 53.9999 38C54.8921 38 55.6162 38.7241 55.6162 39.6163V45.2006L60.4506 42.4084C61.2231 41.9615 62.2147 42.2266 62.6584 43C63.1045 43.7734 62.8402 44.7618 62.0668 45.207L57.2333 48L62.0677 50.7921C62.8411 51.2382 63.1069 52.2266 62.6608 53Z" fill="#2E7B31"/>
<path d="M94.6608 53C94.3618 53.5204 93.8187 53.8081 93.2595 53.8081C92.9855 53.8081 92.7075 53.7386 92.453 53.5916L87.6187 50.7994V56.3837C87.6187 57.2759 86.8946 58 86.0024 58C85.1102 58 84.3861 57.2759 84.3861 56.3837V50.7986L79.5493 53.5916C79.2947 53.7386 79.0167 53.8081 78.7428 53.8081C78.1844 53.8081 77.6405 53.5204 77.3415 53C76.8954 52.2266 77.1596 51.2382 77.933 50.7938L82.7682 48.0008L77.9314 45.2079C77.158 44.761 76.8937 43.7742 77.3398 43.0008C77.7859 42.2274 78.7751 41.9623 79.5477 42.4092L84.3836 45.2014V39.6163C84.3836 38.7241 85.1077 38 85.9999 38C86.8921 38 87.6162 38.7241 87.6162 39.6163V45.2006L92.4506 42.4084C93.2231 41.9615 94.2147 42.2266 94.6584 43C95.1045 43.7734 94.8402 44.7618 94.0668 45.207L89.2333 48L94.0677 50.7921C94.8411 51.2382 95.1069 52.2266 94.6608 53Z" fill="#2E7B31"/>
<rect y="32" width="108" height="31" fill="#7BCC74"/>
<path d="M22.4057 46.2754C24.9671 46.2754 27.0434 44.199 27.0434 41.6377C27.0434 39.0764 24.9671 37 22.4057 37C19.8444 37 17.7681 39.0764 17.7681 41.6377C17.7681 44.199 19.8444 46.2754 22.4057 46.2754Z" fill="#2E7B31"/>
<path d="M22.4058 48.5942C17.7634 48.5942 14 52.3576 14 57H30.8116C30.8116 52.3576 27.0482 48.5942 22.4058 48.5942Z" fill="#2E7B31"/>
<path d="M62.6608 53C62.3618 53.5204 61.8187 53.8081 61.2595 53.8081C60.9855 53.8081 60.7075 53.7386 60.453 53.5916L55.6187 50.7994V56.3837C55.6187 57.2759 54.8946 58 54.0024 58C53.1102 58 52.3861 57.2759 52.3861 56.3837V50.7986L47.5493 53.5916C47.2947 53.7386 47.0167 53.8081 46.7428 53.8081C46.1844 53.8081 45.6405 53.5204 45.3415 53C44.8954 52.2266 45.1596 51.2382 45.933 50.7938L50.7682 48.0008L45.9314 45.2079C45.158 44.761 44.8937 43.7742 45.3398 43.0008C45.7859 42.2274 46.7751 41.9623 47.5477 42.4092L52.3836 45.2014V39.6163C52.3836 38.7241 53.1077 38 53.9999 38C54.8921 38 55.6162 38.7241 55.6162 39.6163V45.2006L60.4506 42.4084C61.2231 41.9615 62.2147 42.2266 62.6584 43C63.1045 43.7734 62.8402 44.7618 62.0668 45.207L57.2333 48L62.0677 50.7921C62.8411 51.2382 63.1069 52.2266 62.6608 53Z" fill="#2E7B31"/>
<path d="M94.6608 53C94.3618 53.5204 93.8187 53.8081 93.2595 53.8081C92.9855 53.8081 92.7075 53.7386 92.453 53.5916L87.6187 50.7994V56.3837C87.6187 57.2759 86.8946 58 86.0024 58C85.1102 58 84.3861 57.2759 84.3861 56.3837V50.7986L79.5493 53.5916C79.2947 53.7386 79.0167 53.8081 78.7428 53.8081C78.1844 53.8081 77.6405 53.5204 77.3415 53C76.8954 52.2266 77.1596 51.2382 77.933 50.7938L82.7682 48.0008L77.9314 45.2079C77.158 44.761 76.8937 43.7742 77.3398 43.0008C77.7859 42.2274 78.7751 41.9623 79.5477 42.4092L84.3836 45.2014V39.6163C84.3836 38.7241 85.1077 38 85.9999 38C86.8921 38 87.6162 38.7241 87.6162 39.6163V45.2006L92.4506 42.4084C93.2231 41.9615 94.2147 42.2266 94.6584 43C95.1045 43.7734 94.8402 44.7618 94.0668 45.207L89.2333 48L94.0677 50.7921C94.8411 51.2382 95.1069 52.2266 94.6608 53Z" fill="#2E7B31"/>
<line x1="108" y1="126.5" x2="172" y2="126.5" stroke="#3D9440" stroke-width="5"/>
<rect y="111" width="108" height="31" fill="#7BCC74"/>
<path d="M22.4057 125.275C24.9671 125.275 27.0434 123.199 27.0434 120.638C27.0434 118.076 24.9671 116 22.4057 116C19.8444 116 17.7681 118.076 17.7681 120.638C17.7681 123.199 19.8444 125.275 22.4057 125.275Z" fill="#2E7B31"/>
<path d="M22.4058 127.594C17.7634 127.594 14 131.358 14 136H30.8116C30.8116 131.358 27.0482 127.594 22.4058 127.594Z" fill="#2E7B31"/>
<path d="M62.6608 132C62.3618 132.52 61.8187 132.808 61.2595 132.808C60.9855 132.808 60.7075 132.739 60.453 132.592L55.6187 129.799V135.384C55.6187 136.276 54.8946 137 54.0024 137C53.1102 137 52.3861 136.276 52.3861 135.384V129.799L47.5493 132.592C47.2947 132.739 47.0167 132.808 46.7428 132.808C46.1844 132.808 45.6405 132.52 45.3415 132C44.8954 131.227 45.1596 130.238 45.933 129.794L50.7682 127.001L45.9314 124.208C45.158 123.761 44.8937 122.774 45.3398 122.001C45.7859 121.227 46.7751 120.962 47.5477 121.409L52.3836 124.201V118.616C52.3836 117.724 53.1077 117 53.9999 117C54.8921 117 55.6162 117.724 55.6162 118.616V124.201L60.4506 121.408C61.2231 120.962 62.2147 121.227 62.6584 122C63.1045 122.773 62.8402 123.762 62.0668 124.207L57.2333 127L62.0677 129.792C62.8411 130.238 63.1069 131.227 62.6608 132Z" fill="#2E7B31"/>
<path d="M94.6608 132C94.3618 132.52 93.8187 132.808 93.2595 132.808C92.9855 132.808 92.7075 132.739 92.453 132.592L87.6187 129.799V135.384C87.6187 136.276 86.8946 137 86.0024 137C85.1102 137 84.3861 136.276 84.3861 135.384V129.799L79.5493 132.592C79.2947 132.739 79.0167 132.808 78.7428 132.808C78.1844 132.808 77.6405 132.52 77.3415 132C76.8954 131.227 77.1596 130.238 77.933 129.794L82.7682 127.001L77.9314 124.208C77.158 123.761 76.8937 122.774 77.3398 122.001C77.7859 121.227 78.7751 120.962 79.5477 121.409L84.3836 124.201V118.616C84.3836 117.724 85.1077 117 85.9999 117C86.8921 117 87.6162 117.724 87.6162 118.616V124.201L92.4506 121.408C93.2231 120.962 94.2147 121.227 94.6584 122C95.1045 122.773 94.8402 123.762 94.0668 124.207L89.2333 127L94.0677 129.792C94.8411 130.238 95.1069 131.227 94.6608 132Z" fill="#2E7B31"/>
<line x1="108" y1="210.5" x2="172" y2="210.5" stroke="#3D9440" stroke-width="5"/>
<rect y="195" width="108" height="31" fill="#7BCC74"/>
<path d="M22.4057 209.275C24.9671 209.275 27.0434 207.199 27.0434 204.638C27.0434 202.076 24.9671 200 22.4057 200C19.8444 200 17.7681 202.076 17.7681 204.638C17.7681 207.199 19.8444 209.275 22.4057 209.275Z" fill="#2E7B31"/>
<path d="M22.4058 211.594C17.7634 211.594 14 215.358 14 220H30.8116C30.8116 215.358 27.0482 211.594 22.4058 211.594Z" fill="#2E7B31"/>
<path d="M62.6608 216C62.3618 216.52 61.8187 216.808 61.2595 216.808C60.9855 216.808 60.7075 216.739 60.453 216.592L55.6187 213.799V219.384C55.6187 220.276 54.8946 221 54.0024 221C53.1102 221 52.3861 220.276 52.3861 219.384V213.799L47.5493 216.592C47.2947 216.739 47.0167 216.808 46.7428 216.808C46.1844 216.808 45.6405 216.52 45.3415 216C44.8954 215.227 45.1596 214.238 45.933 213.794L50.7682 211.001L45.9314 208.208C45.158 207.761 44.8937 206.774 45.3398 206.001C45.7859 205.227 46.7751 204.962 47.5477 205.409L52.3836 208.201V202.616C52.3836 201.724 53.1077 201 53.9999 201C54.8921 201 55.6162 201.724 55.6162 202.616V208.201L60.4506 205.408C61.2231 204.962 62.2147 205.227 62.6584 206C63.1045 206.773 62.8402 207.762 62.0668 208.207L57.2333 211L62.0677 213.792C62.8411 214.238 63.1069 215.227 62.6608 216Z" fill="#2E7B31"/>
<path d="M94.6608 216C94.3618 216.52 93.8187 216.808 93.2595 216.808C92.9855 216.808 92.7075 216.739 92.453 216.592L87.6187 213.799V219.384C87.6187 220.276 86.8946 221 86.0024 221C85.1102 221 84.3861 220.276 84.3861 219.384V213.799L79.5493 216.592C79.2947 216.739 79.0167 216.808 78.7428 216.808C78.1844 216.808 77.6405 216.52 77.3415 216C76.8954 215.227 77.1596 214.238 77.933 213.794L82.7682 211.001L77.9314 208.208C77.158 207.761 76.8937 206.774 77.3398 206.001C77.7859 205.227 78.7751 204.962 79.5477 205.409L84.3836 208.201V202.616C84.3836 201.724 85.1077 201 85.9999 201C86.8921 201 87.6162 201.724 87.6162 202.616V208.201L92.4506 205.408C93.2231 204.962 94.2147 205.227 94.6584 206C95.1045 206.773 94.8402 207.762 94.0668 208.207L89.2333 211L94.0677 213.792C94.8411 214.238 95.1069 215.227 94.6608 216Z" fill="#2E7B31"/>
<line x1="108" y1="294.5" x2="172" y2="294.5" stroke="#3D9440" stroke-width="5"/>
<rect y="279" width="108" height="31" fill="#7BCC74"/>
<path d="M22.4057 293.275C24.9671 293.275 27.0434 291.199 27.0434 288.638C27.0434 286.076 24.9671 284 22.4057 284C19.8444 284 17.7681 286.076 17.7681 288.638C17.7681 291.199 19.8444 293.275 22.4057 293.275Z" fill="#2E7B31"/>
<path d="M22.4058 295.594C17.7634 295.594 14 299.358 14 304H30.8116C30.8116 299.358 27.0482 295.594 22.4058 295.594Z" fill="#2E7B31"/>
<path d="M62.6608 300C62.3618 300.52 61.8187 300.808 61.2595 300.808C60.9855 300.808 60.7075 300.739 60.453 300.592L55.6187 297.799V303.384C55.6187 304.276 54.8946 305 54.0024 305C53.1102 305 52.3861 304.276 52.3861 303.384V297.799L47.5493 300.592C47.2947 300.739 47.0167 300.808 46.7428 300.808C46.1844 300.808 45.6405 300.52 45.3415 300C44.8954 299.227 45.1596 298.238 45.933 297.794L50.7682 295.001L45.9314 292.208C45.158 291.761 44.8937 290.774 45.3398 290.001C45.7859 289.227 46.7751 288.962 47.5477 289.409L52.3836 292.201V286.616C52.3836 285.724 53.1077 285 53.9999 285C54.8921 285 55.6162 285.724 55.6162 286.616V292.201L60.4506 289.408C61.2231 288.962 62.2147 289.227 62.6584 290C63.1045 290.773 62.8402 291.762 62.0668 292.207L57.2333 295L62.0677 297.792C62.8411 298.238 63.1069 299.227 62.6608 300Z" fill="#2E7B31"/>
<path d="M94.6608 300C94.3618 300.52 93.8187 300.808 93.2595 300.808C92.9855 300.808 92.7075 300.739 92.453 300.592L87.6187 297.799V303.384C87.6187 304.276 86.8946 305 86.0024 305C85.1102 305 84.3861 304.276 84.3861 303.384V297.799L79.5493 300.592C79.2947 300.739 79.0167 300.808 78.7428 300.808C78.1844 300.808 77.6405 300.52 77.3415 300C76.8954 299.227 77.1596 298.238 77.933 297.794L82.7682 295.001L77.9314 292.208C77.158 291.761 76.8937 290.774 77.3398 290.001C77.7859 289.227 78.7751 288.962 79.5477 289.409L84.3836 292.201V286.616C84.3836 285.724 85.1077 285 85.9999 285C86.8921 285 87.6162 285.724 87.6162 286.616V292.201L92.4506 289.408C93.2231 288.962 94.2147 289.227 94.6584 290C95.1045 290.773 94.8402 291.762 94.0668 292.207L89.2333 295L94.0677 297.792C94.8411 298.238 95.1069 299.227 94.6608 300Z" fill="#2E7B31"/>
<line x1="290.5" y1="117" x2="290.5" y2="147" stroke="#7BCC74" stroke-width="3"/>
<line x1="291.5" y1="209" x2="291.5" y2="239" stroke="#7BCC74" stroke-width="3"/>
<line x1="313.939" y1="156.546" x2="324.546" y2="145.939" stroke="#7BCC74" stroke-width="3"/>
<line x1="252.939" y1="209.546" x2="263.546" y2="198.939" stroke="#7BCC74" stroke-width="3"/>
<path d="M313 200L323.607 210.607" stroke="#7BCC74" stroke-width="3"/>
<path d="M254 147L264.607 157.607" stroke="#7BCC74" stroke-width="3"/>
<line x1="324" y1="179.5" x2="354" y2="179.5" stroke="#7BCC74" stroke-width="3"/>
</svg>
