<svg width="105" height="29" viewBox="0 0 105 29" fill="none" xmlns="http://www.w3.org/2000/svg">
<path d="M3.99609 23H1.82812V10.3203H3.99609V23ZM1.65234 6.95703C1.65234 6.60547 1.75781 6.30859 1.96875 6.06641C2.1875 5.82422 2.50781 5.70312 2.92969 5.70312C3.35156 5.70312 3.67188 5.82422 3.89062 6.06641C4.10938 6.30859 4.21875 6.60547 4.21875 6.95703C4.21875 7.30859 4.10938 7.60156 3.89062 7.83594C3.67188 8.07031 3.35156 8.1875 2.92969 8.1875C2.50781 8.1875 2.1875 8.07031 1.96875 7.83594C1.75781 7.60156 1.65234 7.30859 1.65234 6.95703ZM14.8594 19.6367C14.8594 19.0508 14.6367 18.5977 14.1914 18.2773C13.7539 17.9492 12.9844 17.668 11.8828 17.4336C10.7891 17.1992 9.91797 16.918 9.26953 16.5898C8.62891 16.2617 8.15234 15.8711 7.83984 15.418C7.53516 14.9648 7.38281 14.4258 7.38281 13.8008C7.38281 12.7617 7.82031 11.8828 8.69531 11.1641C9.57812 10.4453 10.7031 10.0859 12.0703 10.0859C13.5078 10.0859 14.6719 10.457 15.5625 11.1992C16.4609 11.9414 16.9102 12.8906 16.9102 14.0469H14.7305C14.7305 13.4531 14.4766 12.9414 13.9688 12.5117C13.4688 12.082 12.8359 11.8672 12.0703 11.8672C11.2812 11.8672 10.6641 12.0391 10.2188 12.3828C9.77344 12.7266 9.55078 13.1758 9.55078 13.7305C9.55078 14.2539 9.75781 14.6484 10.1719 14.9141C10.5859 15.1797 11.332 15.4336 12.4102 15.6758C13.4961 15.918 14.375 16.207 15.0469 16.543C15.7188 16.8789 16.2148 17.2852 16.5352 17.7617C16.8633 18.2305 17.0273 18.8047 17.0273 19.4844C17.0273 20.6172 16.5742 21.5273 15.668 22.2148C14.7617 22.8945 13.5859 23.2344 12.1406 23.2344C11.125 23.2344 10.2266 23.0547 9.44531 22.6953C8.66406 22.3359 8.05078 21.8359 7.60547 21.1953C7.16797 20.5469 6.94922 19.8477 6.94922 19.0977H9.11719C9.15625 19.8242 9.44531 20.4023 9.98438 20.832C10.5312 21.2539 11.25 21.4648 12.1406 21.4648C12.9609 21.4648 13.6172 21.3008 14.1094 20.9727C14.6094 20.6367 14.8594 20.1914 14.8594 19.6367ZM19.2773 16.543C19.2773 15.3008 19.5195 14.1836 20.0039 13.1914C20.4961 12.1992 21.1758 11.4336 22.043 10.8945C22.918 10.3555 23.9141 10.0859 25.0312 10.0859C26.7578 10.0859 28.1523 10.6836 29.2148 11.8789C30.2852 13.0742 30.8203 14.6641 30.8203 16.6484V16.8008C30.8203 18.0352 30.582 19.1445 30.1055 20.1289C29.6367 21.1055 28.9609 21.8672 28.0781 22.4141C27.2031 22.9609 26.1953 23.2344 25.0547 23.2344C23.3359 23.2344 21.9414 22.6367 20.8711 21.4414C19.8086 20.2461 19.2773 18.6641 19.2773 16.6953V16.543ZM21.457 16.8008C21.457 18.207 21.7812 19.3359 22.4297 20.1875C23.0859 21.0391 23.9609 21.4648 25.0547 21.4648C26.1562 21.4648 27.0312 21.0352 27.6797 20.1758C28.3281 19.3086 28.6523 18.0977 28.6523 16.543C28.6523 15.1523 28.3203 14.0273 27.6562 13.168C27 12.3008 26.125 11.8672 25.0312 11.8672C23.9609 11.8672 23.0977 12.293 22.4414 13.1445C21.7852 13.9961 21.457 15.2148 21.457 16.8008ZM32.5078 16.5664C32.5078 14.5586 32.9414 12.9766 33.8086 11.8203C34.6758 10.6641 35.8867 10.0859 37.4414 10.0859C38.5742 10.0859 39.5273 10.5312 40.3008 11.4219V5H44.2617V23H40.7109L40.5117 21.6406C39.6992 22.7031 38.668 23.2344 37.418 23.2344C35.9102 23.2344 34.7148 22.6562 33.832 21.5C32.9492 20.3438 32.5078 18.6992 32.5078 16.5664ZM36.457 16.8125C36.457 19.0625 37.1133 20.1875 38.4258 20.1875C39.3008 20.1875 39.9258 19.8203 40.3008 19.0859V14.2578C39.9414 13.5078 39.3242 13.1328 38.4492 13.1328C37.2305 13.1328 36.5703 14.1172 36.4688 16.0859L36.457 16.8125ZM50.6719 23H46.7109V10.3203H50.6719V23ZM46.4766 7.05078C46.4766 6.48828 46.6797 6.02734 47.0859 5.66797C47.4922 5.30859 48.0195 5.12891 48.668 5.12891C49.3164 5.12891 49.8438 5.30859 50.25 5.66797C50.6562 6.02734 50.8594 6.48828 50.8594 7.05078C50.8594 7.61328 50.6562 8.07422 50.25 8.43359C49.8438 8.79297 49.3164 8.97266 48.668 8.97266C48.0195 8.97266 47.4922 8.79297 47.0859 8.43359C46.6797 8.07422 46.4766 7.61328 46.4766 7.05078ZM52.6523 16.5664C52.6523 15.2852 52.8633 14.1523 53.2852 13.168C53.707 12.1836 54.3125 11.4258 55.1016 10.8945C55.8906 10.3555 56.8086 10.0859 57.8555 10.0859C59.1758 10.0859 60.207 10.5312 60.9492 11.4219L61.0898 10.3203H64.6758V22.5195C64.6758 23.6367 64.4141 24.6055 63.8906 25.4258C63.375 26.2539 62.625 26.8867 61.6406 27.3242C60.6562 27.7695 59.5156 27.9922 58.2188 27.9922C57.2891 27.9922 56.3867 27.8164 55.5117 27.4648C54.6445 27.1133 53.9805 26.6562 53.5195 26.0938L55.1719 23.7734C55.9062 24.6406 56.875 25.0742 58.0781 25.0742C59.8281 25.0742 60.7031 24.1758 60.7031 22.3789V21.9805C59.9453 22.8164 58.9883 23.2344 57.832 23.2344C56.2852 23.2344 55.0352 22.6445 54.082 21.4648C53.1289 20.2773 52.6523 18.6914 52.6523 16.707V16.5664ZM56.6133 16.8125C56.6133 17.8516 56.8086 18.6758 57.1992 19.2852C57.5898 19.8867 58.1367 20.1875 58.8398 20.1875C59.6914 20.1875 60.3125 19.9023 60.7031 19.332V14C60.3203 13.4219 59.707 13.1328 58.8633 13.1328C58.1602 13.1328 57.6094 13.4492 57.2109 14.082C56.8125 14.707 56.6133 15.6172 56.6133 16.8125ZM71.0859 23H67.125V10.3203H71.0859V23ZM66.8906 7.05078C66.8906 6.48828 67.0938 6.02734 67.5 5.66797C67.9062 5.30859 68.4336 5.12891 69.082 5.12891C69.7305 5.12891 70.2578 5.30859 70.6641 5.66797C71.0703 6.02734 71.2734 6.48828 71.2734 7.05078C71.2734 7.61328 71.0703 8.07422 70.6641 8.43359C70.2578 8.79297 69.7305 8.97266 69.082 8.97266C68.4336 8.97266 67.9062 8.79297 67.5 8.43359C67.0938 8.07422 66.8906 7.61328 66.8906 7.05078ZM74.4023 23V13.0625H72.5625V10.3203H74.4023V9.3125C74.4023 7.86719 74.8281 6.74609 75.6797 5.94922C76.5312 5.15234 77.7266 4.75391 79.2656 4.75391C79.8281 4.75391 80.4453 4.83594 81.1172 5L81.1289 7.90625C80.8867 7.83594 80.5625 7.80078 80.1562 7.80078C78.9609 7.80078 78.3633 8.31641 78.3633 9.34766V10.3203H80.8359V13.0625H78.3633V23H74.4023ZM87.293 17.4688L89.4023 10.3203H93.6328L88.4648 25.1211L88.2422 25.6602C87.5078 27.3008 86.2109 28.1211 84.3516 28.1211C83.8359 28.1211 83.293 28.043 82.7227 27.8867V25.0625H83.2383C83.793 25.0625 84.2148 24.9805 84.5039 24.8164C84.8008 24.6602 85.0195 24.375 85.1602 23.9609L85.4766 23.1172L81.0703 10.3203H85.2891L87.293 17.4688Z" fill="black"/>
<path d="M99.4471 0V11" stroke="#00FFCC" stroke-width="2.5"/>
<path d="M93.8942 5.5H105" stroke="#00FFCC" stroke-width="2.5"/>
</svg>
