<svg width="399" height="343" viewBox="0 0 399 343" fill="none" xmlns="http://www.w3.org/2000/svg">
<rect y="13" width="399" height="330" rx="20" fill="#FFE3BD" fill-opacity="0.5"/>
<path d="M220.105 191.621H134.096L117.077 171H54.8955C51.6414 171 49 173.283 49 176.102V301.971C49.2349 301.976 49.4697 301.988 49.6978 302L83.7873 221.538C84.4136 219.526 86.5206 218.133 88.9271 218.133H226V196.723C226 193.904 223.359 191.621 220.105 191.621Z" fill="#E6A34C"/>
<path d="M188.183 305H86.523C78.5023 305 72 298.572 72 290.643V146.357C72.0003 138.428 78.5023 132 86.523 132H153.174C156.887 132 160.458 133.406 163.155 135.928L198.163 168.669C201.063 171.38 202.706 175.152 202.706 179.098V290.643C202.706 298.572 196.204 305 188.183 305Z" fill="#FFD396"/>
<path d="M198.163 168.669L163.155 135.928C160.458 133.405 156.887 132 153.174 132H137.353V305H188.183C196.203 305 202.706 298.572 202.706 290.643V179.098C202.705 175.152 201.063 171.381 198.163 168.669V168.669Z" fill="#FFB554"/>
<path d="M164.22 175.071H202.118C201.402 172.651 200.051 170.435 198.164 168.669L163.155 135.928C161.395 134.281 159.26 133.114 156.959 132.5V167.892C156.959 171.857 160.21 175.071 164.22 175.071V175.071Z" fill="#FF8F00"/>
<path d="M179.872 209.715H94.8334C91.8885 209.715 89.5013 207.446 89.5013 204.646C89.5013 201.847 91.8885 199.578 94.8334 199.578H179.872C182.817 199.578 185.204 201.847 185.204 204.646C185.204 207.446 182.817 209.715 179.872 209.715Z" fill="#DCA050"/>
<path d="M179.872 236.746H94.8334C91.8885 236.746 89.5013 234.477 89.5013 231.678C89.5013 228.879 91.8885 226.609 94.8334 226.609H179.872C182.817 226.609 185.204 228.879 185.204 231.678C185.204 234.477 182.817 236.746 179.872 236.746Z" fill="#DCA050"/>
<path d="M124.101 263.777H94.8334C91.8885 263.777 89.5013 261.508 89.5013 258.709C89.5013 255.91 91.8885 253.641 94.8334 253.641H124.101C127.046 253.641 129.433 255.91 129.433 258.709C129.433 261.508 127.046 263.777 124.101 263.777V263.777Z" fill="#DCA050"/>
<path d="M185.204 204.646C185.204 201.847 182.817 199.578 179.872 199.578H137.353V209.715H179.872C182.817 209.715 185.204 207.446 185.204 204.646Z" fill="#CC9249"/>
<path d="M179.872 226.609H137.353V236.746H179.872C182.817 236.746 185.204 234.477 185.204 231.678C185.204 228.879 182.817 226.609 179.872 226.609Z" fill="#CC9249"/>
<path d="M206.342 310H54.3161C50.8176 310 48.2736 307.098 49.1873 304.145L83.7166 221.431C84.3415 219.407 86.444 218 88.8453 218H240.871C244.37 218 246 220.92 246 223.855L211.471 306.569C210.846 308.593 208.743 310 206.342 310Z" fill="#FFC069"/>
<path d="M365.649 55.8175C365.223 25.4702 338.985 0 306.639 0C286.032 0 266.682 10.4832 255.999 25.5923C251.306 22.6515 245.668 20.9316 239.603 20.9316C223.226 20.9316 209.948 33.4277 209.948 48.8404C209.948 49.3741 210 49.8939 210.034 50.4242C209.996 51.0591 209.948 51.701 209.948 52.3289C195.165 58.9991 184 74.8548 184 91.2442C184 113.972 203.758 132.567 227.908 132.567H318.753C319.265 132.567 319.761 132.511 320.266 132.493C320.773 132.511 321.27 132.567 321.778 132.567H358.117C380.603 132.567 399 115.253 399 94.0944C399 75.3572 384.565 59.1701 365.649 55.8175Z" fill="#FF9400"/>
<path d="M312.279 76.7678C313.255 75.7915 313.255 74.2085 312.279 73.2322L296.369 57.3223C295.393 56.346 293.81 56.346 292.834 57.3223C291.857 58.2986 291.857 59.8816 292.834 60.8579L306.976 75L292.834 89.1421C291.857 90.1184 291.857 91.7014 292.834 92.6777C293.81 93.654 295.393 93.654 296.369 92.6777L312.279 76.7678ZM134.5 77.5H310.511V72.5H134.5V77.5Z" fill="#FFE3BD"/>
<line x1="137" y1="184.521" x2="137" y2="73.9796" stroke="#FFE3BD" stroke-width="5"/>
</svg>
